<svg width="24" height="24" viewBox="0 0 24 24" fill="none" xmlns="http://www.w3.org/2000/svg">
<path d="M13.0455 8.31075L7.7955 6.06075C7.70217 6.02055 7.60162 5.99982 7.5 5.99982C7.39838 5.99982 7.29783 6.02055 7.2045 6.06075L1.9545 8.31075C1.81962 8.36857 1.70466 8.46469 1.62387 8.58721C1.54309 8.70972 1.50002 8.85325 1.5 9V15C1.50002 15.1468 1.54309 15.2903 1.62387 15.4128C1.70466 15.5353 1.81962 15.6314 1.9545 15.6893L7.2045 17.9393C7.29782 17.9795 7.39837 18.0002 7.5 18.0002C7.60163 18.0002 7.70218 17.9795 7.7955 17.9393L13.0455 15.6893C13.1804 15.6314 13.2953 15.5353 13.3761 15.4128C13.4569 15.2903 13.5 15.1468 13.5 15V9C13.5 8.85325 13.4569 8.70972 13.3761 8.58721C13.2953 8.46469 13.1804 8.36857 13.0455 8.31075ZM7.5 7.566L10.8458 9L7.5 10.434L4.15425 9L7.5 7.566ZM3 10.137L6.75 11.7443V16.113L3 14.505V10.137ZM8.25 16.113V11.7443L12 10.137V14.5057L8.25 16.113ZM17.25 12.75H18.138C18.2921 13.1875 18.5778 13.5665 18.956 13.8351C19.3341 14.1037 19.7862 14.2486 20.25 14.25C21.4905 14.25 22.5 13.2405 22.5 12C22.5 10.7595 21.4905 9.75 20.25 9.75C19.7862 9.75138 19.3341 9.89631 18.956 10.1649C18.5778 10.4335 18.2921 10.8125 18.138 11.25H17.25V4.5H18.138C18.2921 4.93748 18.5778 5.31654 18.956 5.58512C19.3341 5.85369 19.7862 5.99862 20.25 6C21.4905 6 22.5 4.9905 22.5 3.75C22.5 2.5095 21.4905 1.5 20.25 1.5C19.7862 1.50138 19.3341 1.64631 18.956 1.91488C18.5778 2.18346 18.2921 2.56252 18.138 3H16.5C16.3011 3 16.1103 3.07902 15.9697 3.21967C15.829 3.36032 15.75 3.55109 15.75 3.75V11.25H15C14.8011 11.25 14.6103 11.329 14.4697 11.4697C14.329 11.6103 14.25 11.8011 14.25 12C14.25 12.1989 14.329 12.3897 14.4697 12.5303C14.6103 12.671 14.8011 12.75 15 12.75H15.75V20.25C15.75 20.4489 15.829 20.6397 15.9697 20.7803C16.1103 20.921 16.3011 21 16.5 21H18.138C18.2921 21.4375 18.5778 21.8165 18.956 22.0851C19.3341 22.3537 19.7862 22.4986 20.25 22.5C21.4905 22.5 22.5 21.4905 22.5 20.25C22.5 19.0095 21.4905 18 20.25 18C19.7862 18.0014 19.3341 18.1463 18.956 18.4149C18.5778 18.6835 18.2921 19.0625 18.138 19.5H17.25V12.75ZM20.25 11.25C20.6632 11.25 21 11.5868 21 12C21 12.4132 20.6632 12.75 20.25 12.75C19.8368 12.75 19.5 12.4132 19.5 12C19.5 11.5868 19.8368 11.25 20.25 11.25ZM20.25 3C20.6632 3 21 3.33675 21 3.75C21 4.16325 20.6632 4.5 20.25 4.5C19.8368 4.5 19.5 4.16325 19.5 3.75C19.5 3.33675 19.8368 3 20.25 3ZM20.25 19.5C20.6632 19.5 21 19.8368 21 20.25C21 20.6632 20.6632 21 20.25 21C19.8368 21 19.5 20.6632 19.5 20.25C19.5 19.8368 19.8368 19.5 20.25 19.5Z" fill="#496683"/>
</svg>
