<svg width="24" height="24" viewBox="0 0 24 24" fill="none" xmlns="http://www.w3.org/2000/svg">
<path d="M18.138 12.75C18.2921 13.1875 18.5778 13.5665 18.956 13.8351C19.3341 14.1037 19.7862 14.2486 20.25 14.25C21.4905 14.25 22.5 13.2405 22.5 12C22.5 10.7595 21.4905 9.75 20.25 9.75C19.7862 9.75138 19.3341 9.89631 18.956 10.1649C18.5778 10.4335 18.2921 10.8125 18.138 11.25H17.25V4.5H18.138C18.2921 4.93748 18.5778 5.31654 18.956 5.58512C19.3341 5.85369 19.7862 5.99862 20.25 6C21.4905 6 22.5 4.9905 22.5 3.75C22.5 2.5095 21.4905 1.5 20.25 1.5C19.7862 1.50138 19.3341 1.64631 18.956 1.91488C18.5778 2.18346 18.2921 2.56252 18.138 3H16.5C16.3011 3 16.1103 3.07902 15.9697 3.21967C15.829 3.36032 15.75 3.55109 15.75 3.75V11.25H14.25V12.75H15.75V20.25C15.75 20.4489 15.829 20.6397 15.9697 20.7803C16.1103 20.921 16.3011 21 16.5 21H18.138C18.2921 21.4375 18.5778 21.8165 18.956 22.0851C19.3341 22.3537 19.7862 22.4986 20.25 22.5C21.4905 22.5 22.5 21.4905 22.5 20.25C22.5 19.0095 21.4905 18 20.25 18C19.7862 18.0014 19.3341 18.1463 18.956 18.4149C18.5778 18.6835 18.2921 19.0625 18.138 19.5H17.25V12.75H18.138ZM7.875 11.4937V18L13.0455 15.69C13.1805 15.6321 13.2955 15.5359 13.3763 15.4132C13.4571 15.2906 13.5001 15.1469 13.5 15V9L13.4993 8.994L7.875 11.4937ZM7.7955 6.06075C7.7022 6.02042 7.60164 5.99962 7.5 5.99962C7.39836 5.99962 7.2978 6.02042 7.2045 6.06075C7.2045 6.06075 1.9155 8.337 1.8945 8.34825L7.5 10.8398L13.1055 8.34825C13.0845 8.337 7.7955 6.06075 7.7955 6.06075ZM1.5 9V15C1.49987 15.1469 1.54287 15.2906 1.62367 15.4132C1.70446 15.5359 1.8195 15.6321 1.9545 15.69L7.125 18V11.4937L1.50075 8.994L1.5 9Z" fill="white"/>
</svg>
