<svg width="272" height="200" viewBox="0 0 272 200" fill="none" xmlns="http://www.w3.org/2000/svg">
<path d="M97.9417 91.1325H75.0041C73.4471 91.1325 72.2188 89.9027 72.2188 88.3877V65.49C72.2188 63.933 73.4471 62.7036 75.0041 62.7036H97.9414C99.4571 62.7036 100.688 63.9327 100.688 65.49V88.3877C100.688 89.9024 99.4571 91.1325 97.9417 91.1325ZM77.7485 85.6013H95.1574V68.2341H77.7485V85.6013ZM137.063 91.1325H114.165C112.607 91.1325 111.379 89.9027 111.379 88.3877V65.49C111.379 63.933 112.606 62.7036 114.165 62.7036H137.063C138.577 62.7036 139.806 63.9327 139.806 65.49V88.3877C139.806 89.9024 138.577 91.1325 137.063 91.1325ZM116.909 85.6013H134.277V68.2341H116.909V85.6013ZM176.18 91.1325H153.282C151.726 91.1325 150.496 89.9027 150.496 88.3877V65.49C150.496 63.933 151.726 62.7036 153.282 62.7036H176.18C177.695 62.7036 178.923 63.9327 178.923 65.49V88.3877C178.923 89.9024 177.696 91.1325 176.18 91.1325ZM156.026 85.6013H173.395V68.2341H156.026V85.6013ZM97.9417 122.754H75.0041C73.4471 122.754 72.2188 121.525 72.2188 120.009V97.1119C72.2188 95.5563 73.4471 94.3262 75.0041 94.3262H97.9414C99.4571 94.3262 100.688 95.556 100.688 97.1119V120.009C100.688 121.525 99.4571 122.754 97.9417 122.754ZM77.7485 117.225H95.1574V99.856H77.7485V117.225ZM137.063 122.754H114.165C112.607 122.754 111.379 121.525 111.379 120.009V97.1119C111.379 95.5563 112.606 94.3262 114.165 94.3262H137.063C138.577 94.3262 139.806 95.556 139.806 97.1119V120.009C139.806 121.525 138.577 122.754 137.063 122.754ZM116.909 117.225H134.277V99.856H116.909V117.225ZM176.18 122.754H174.377C172.821 122.754 171.592 121.525 171.592 120.009C171.592 119.441 171.764 118.886 172.086 118.418C172.408 117.95 172.864 117.591 173.394 117.387V99.856H156.026V117.225H164.998C166.513 117.225 167.74 118.453 167.74 120.009C167.74 121.525 166.513 122.754 164.998 122.754H153.282C151.726 122.754 150.496 121.525 150.496 120.009V97.1123C150.496 95.5567 151.726 94.3266 153.282 94.3266H176.18C177.695 94.3266 178.922 95.5563 178.922 97.1123V120.009C178.923 120.37 178.852 120.726 178.714 121.059C178.577 121.392 178.375 121.695 178.12 121.95C177.865 122.205 177.563 122.407 177.23 122.545C176.897 122.683 176.54 122.754 176.18 122.754ZM97.9417 154.376H75.0041C73.4471 154.376 72.2188 153.147 72.2188 151.632V128.733C72.2188 127.178 73.4471 125.947 75.0041 125.947H97.9414C99.4571 125.947 100.688 127.177 100.688 128.733V151.632C100.688 153.147 99.4571 154.376 97.9417 154.376ZM77.7485 148.847H95.1574V131.479H77.7485V148.847ZM137.063 154.376H114.165C112.607 154.376 111.379 153.147 111.379 151.632V128.733C111.379 127.178 112.606 125.947 114.165 125.947H137.063C138.577 125.947 139.806 127.177 139.806 128.733V151.632C139.806 152.36 139.517 153.057 139.002 153.572C138.488 154.086 137.79 154.375 137.063 154.376ZM116.909 148.847H134.277V131.479H116.909V148.847ZM163.522 154.376H153.282C151.726 154.376 150.496 153.147 150.496 151.632V128.733C150.496 127.178 151.726 125.947 153.282 125.947H167.045C168.562 125.947 169.791 127.177 169.791 128.733C169.791 129.461 169.502 130.16 168.987 130.675C168.472 131.19 167.774 131.479 167.045 131.479H156.026V148.847H163.522C165.037 148.847 166.269 150.074 166.269 151.632C166.269 153.147 165.037 154.376 163.522 154.376ZM137.063 186H114.165C112.607 186 111.379 184.771 111.379 183.255V160.357C111.379 158.801 112.606 157.571 114.165 157.571H137.063C138.577 157.571 139.806 158.801 139.806 160.357V183.255C139.806 184.771 138.577 186 137.063 186ZM116.909 180.469H134.277V163.101H116.909V180.469Z" fill="white"/>
<path d="M181.177 183.868C179.908 183.868 178.76 183.009 178.475 181.739L176.507 173.464L166.308 161.669C166.186 161.544 166.143 161.464 166.061 161.339L162.089 155.154C159.714 151.346 160 146.716 162.826 143.317L166.514 138.852L160.738 113.783C160.409 112.226 160.697 110.711 161.557 109.442C162.417 108.173 163.728 107.311 165.202 107.025C167.25 106.657 168.314 106.411 168.314 106.411C171.552 105.836 174.543 107.886 175.074 110.958L178.475 125.458C178.557 125.458 178.678 125.417 178.802 125.376C180.973 124.967 182.078 124.762 182.078 124.762C183.58 124.515 185.119 124.852 186.38 125.703C187.022 126.147 187.566 126.719 187.977 127.382L188.469 127.261L191.705 126.645C193.179 126.359 194.696 126.645 195.965 127.505C196.66 127.957 197.193 128.571 197.604 129.226C197.808 129.185 197.971 129.145 198.176 129.104C200.267 128.694 201.373 128.489 201.373 128.489C204.404 127.957 207.351 129.923 208.008 132.954V133.118L212.676 164.248L215.094 174.777C215.298 175.514 215.135 176.292 214.724 176.947C214.315 177.562 213.661 178.011 212.922 178.137L181.669 183.83C181.505 183.868 181.341 183.868 181.177 183.868ZM185.274 57.8294H65.9115C60.913 57.8294 56.8174 53.7744 56.8174 48.7776V23.0939C56.8174 18.0555 60.9127 13.9998 65.9115 13.9998H185.274C190.27 13.9998 194.325 18.0555 194.325 23.0939V48.778C194.325 53.7744 190.27 57.8294 185.274 57.8294ZM65.9115 19.5302C63.9864 19.5302 62.3465 21.1687 62.3465 23.0939V48.778C62.3465 50.6611 63.9867 52.3 65.9115 52.3H185.274C187.198 52.3 188.795 50.7017 188.795 48.778V23.0939C188.795 21.1684 187.198 19.5302 185.274 19.5302H65.9115ZM88.4001 43.0018L84.4662 40.7491V45.2955H78.9361V40.7082L74.9626 43.0018L72.2189 38.2088L76.1511 35.9567L72.2189 33.6624L74.9626 28.8707L78.9361 31.1637V26.6163H84.4662V31.1213L88.4001 28.8707L91.1424 33.6624L87.2116 35.9567L91.1424 38.2088L88.4001 43.0018ZM176.18 43.0018L172.247 40.7491V45.2955H166.717V40.7082L162.744 43.0018L160 38.2088L163.933 35.9567L160 33.6624L162.744 28.8707L166.717 31.1637V26.6163H172.247V31.1213L176.18 28.8707L178.923 33.6624L174.992 35.9567L178.923 38.2088L176.18 43.0018ZM146.933 43.0018L142.96 40.7082V45.2955H137.429V40.7491L133.498 43.0018L130.753 38.2088L134.686 35.9567L130.753 33.6624L133.498 28.8707L137.429 31.1213V26.6163H142.96V31.164L146.933 28.871L149.678 33.6627L145.745 35.9571L149.678 38.2091L146.933 43.0018ZM117.686 43.0018L113.714 40.7082V45.2955H108.184V40.7491L104.251 43.0018L101.506 38.2088L105.437 35.9567L101.506 33.6624L104.251 28.8707L108.184 31.1213V26.6163H113.714V31.164L117.686 28.871L120.43 33.6627L116.498 35.9571L120.43 38.2091L117.686 43.0018ZM170.608 158.186L181.136 170.352C181.422 170.72 181.626 171.09 181.709 171.539L183.226 177.929L209.072 173.218L207.271 165.395C207.229 165.313 207.229 165.231 207.229 165.191L202.559 134.061C202.559 133.978 202.478 133.938 202.396 133.938C202.396 133.938 201.29 134.142 199.159 134.55C199.446 136.026 198.381 137.583 196.908 137.869C195.393 138.156 193.917 137.256 193.588 135.781L192.894 132.216L192.729 132.094L189.37 132.749L189.412 132.872C189.696 134.346 188.716 135.78 187.24 136.108C185.765 136.394 184.29 135.453 184.004 133.938C183.963 133.896 183.963 133.896 183.963 133.855L183.268 130.373L183.103 130.209C182.118 130.454 180.891 130.618 179.867 130.824C179.785 130.824 179.745 130.946 179.745 131.07C180.03 132.544 179.049 133.938 177.573 134.265C176.14 134.55 174.665 133.649 174.337 132.175L169.667 112.063C169.627 111.817 169.503 111.817 169.464 111.817C169.382 111.817 168.315 112.063 166.226 112.473L172.166 138.565C172.247 138.771 172.288 138.974 172.33 139.18L174.459 148.641C174.828 150.156 173.887 151.632 172.412 151.959C170.897 152.329 169.421 151.386 169.094 149.911L168.112 145.61L167.088 146.88C165.777 148.396 165.653 150.443 166.759 152.207L170.608 158.186Z" fill="white"/>
</svg>
