<svg width="31" height="25" viewBox="0 0 31 25" fill="none" xmlns="http://www.w3.org/2000/svg">
<g clip-path="url(#clip0_344_6251)">
<path d="M19.2291 18.2158C19.3007 18.1543 19.2955 18.0743 19.2533 18.0156C19.2234 17.9503 19.1569 17.906 19.0679 17.9365C16.8444 18.6991 14.3164 18.1988 12.5719 16.6139C10.7916 14.9965 10.0371 12.4677 10.6498 10.1413C10.9834 8.87483 11.696 7.73684 12.6827 6.87704C12.8064 6.76923 12.6774 6.5431 12.5215 6.59777C10.9653 7.14327 9.63209 8.22842 8.81237 9.66275C8.06478 10.9709 7.76673 12.5141 7.97408 14.0061C8.1899 15.5589 8.95432 17.0227 10.1082 18.0852C11.2208 19.1098 12.6592 19.7374 14.1647 19.8699C15.746 20.009 17.3581 19.5719 18.6576 18.6611C18.8554 18.5224 19.0459 18.3733 19.2291 18.2158Z" fill="#D5E900"/>
</g>
<path d="M3.13358 14.3929C3.03293 14.4141 2.90761 14.4564 2.8194 14.4988C2.68871 14.5624 2.66405 14.5818 2.58637 14.6877C2.42216 14.9101 2.40088 14.9683 2.39561 15.2244C2.38865 15.4626 2.41152 15.5915 2.48045 15.7098C2.51923 15.7769 2.52282 15.7751 2.38327 15.7416C2.2157 15.7011 2.0126 15.7081 1.90668 15.7574C1.67903 15.8635 1.35062 16.2818 1.30467 16.5237C1.29581 16.5678 1.28707 16.5801 1.26409 16.5713C1.20054 16.5466 1.01515 16.5095 0.90048 16.499C0.55974 16.469 0.21373 16.656 0.0741877 16.9473C0.0124266 17.0797 -0.0175055 17.3004 0.0106348 17.4275C0.0301328 17.514 0.13774 17.6924 0.215416 17.7665C0.293092 17.8407 0.545617 17.9854 0.700968 18.0454C0.824491 18.0931 0.87919 18.1036 1.11938 18.1195C1.59239 18.1514 1.86252 18.1284 2.17333 18.0313C2.22624 18.0154 2.2333 18.0189 2.29327 18.0914C2.42396 18.2484 2.69935 18.4073 2.93059 18.4603C2.99235 18.4761 3.13716 18.4885 3.25183 18.492C3.43016 18.4938 3.4778 18.4885 3.58203 18.455C3.72147 18.4074 3.808 18.3667 3.94216 18.282L4.03386 18.2219L4.10447 18.2732C4.24401 18.3737 4.39409 18.4215 4.60762 18.4302C4.81947 18.4391 4.9607 18.4144 5.11078 18.342C5.19024 18.3031 5.37216 18.1372 5.40736 18.0719C5.42506 18.0402 5.43381 18.0419 5.59981 18.1284C5.69508 18.1778 5.8381 18.2396 5.91757 18.2644C6.0959 18.319 6.45772 18.3526 6.75967 18.342C6.94148 18.335 6.99786 18.3243 7.14088 18.2767C7.51693 18.1496 7.73584 17.9854 7.85588 17.74C7.96539 17.5176 7.97413 17.1822 7.87527 16.981C7.78706 16.7974 7.63877 16.6985 7.38624 16.649C7.32448 16.6384 7.27157 16.6261 7.26799 16.6243C7.2663 16.6225 7.25218 16.5767 7.23806 16.522C7.14795 16.176 6.90438 15.9288 6.51948 15.7893C6.40829 15.7487 6.36244 15.7434 6.17705 15.7416C5.96342 15.7416 5.96173 15.7416 5.83452 15.807C5.76222 15.8441 5.70394 15.8723 5.70215 15.8687C5.70046 15.8669 5.68454 15.8264 5.66684 15.7787C5.63332 15.6887 5.51686 15.558 5.42865 15.5121C5.36151 15.4786 5.19024 15.4628 5.06314 15.4821L4.95363 15.498L4.94489 15.4257C4.93728 15.364 4.93078 15.3022 4.92539 15.2403C4.906 15.0355 4.78943 14.8077 4.62354 14.6471C4.5212 14.5465 4.25993 14.4177 4.09045 14.3824C3.89273 14.3417 3.35069 14.3487 3.13358 14.3929Z" fill="white"/>
<path d="M19.49 20.0814C19.3894 20.1026 19.2641 20.1449 19.1758 20.1873C19.0452 20.2508 19.0205 20.2702 18.9428 20.3762C18.7786 20.5985 18.7573 20.6568 18.7521 20.9128C18.7451 21.1511 18.768 21.28 18.8369 21.3983C18.8757 21.4654 18.8793 21.4636 18.7397 21.4301C18.5721 21.3895 18.369 21.3966 18.2631 21.4459C18.0355 21.5519 17.7071 21.9703 17.6611 22.2121C17.6523 22.2563 17.6435 22.2686 17.6205 22.2598C17.557 22.2351 17.3716 22.198 17.2569 22.1875C16.9162 22.1574 16.5702 22.3445 16.4306 22.6358C16.3689 22.7682 16.3389 22.9889 16.3671 23.116C16.3866 23.2025 16.4942 23.3809 16.5719 23.4549C16.6495 23.5291 16.9021 23.6738 17.0574 23.7339C17.1809 23.7816 17.2356 23.7921 17.4758 23.808C17.9488 23.8398 18.219 23.8169 18.5298 23.7198C18.5827 23.7039 18.5897 23.7074 18.6497 23.7799C18.7804 23.9369 19.0558 24.0957 19.287 24.1488C19.3488 24.1646 19.4936 24.177 19.6083 24.1805C19.7866 24.1823 19.8342 24.177 19.9385 24.1435C20.0779 24.0958 20.1644 24.0552 20.2986 23.9704L20.3903 23.9104L20.4609 23.9617C20.6005 24.0622 20.7505 24.11 20.9641 24.1187C21.1759 24.1276 21.3171 24.1029 21.4672 24.0305C21.5467 23.9916 21.7286 23.8257 21.7638 23.7604C21.7815 23.7287 21.7903 23.7303 21.9563 23.8169C22.0515 23.8663 22.1945 23.9281 22.274 23.9528C22.4523 24.0075 22.8142 24.041 23.1161 24.0305C23.2979 24.0234 23.3543 24.0128 23.4973 23.9652C23.8734 23.8381 24.0923 23.6738 24.2123 23.4285C24.3218 23.2061 24.3306 22.8706 24.2317 22.6694C24.1435 22.4858 23.9952 22.387 23.7427 22.3374C23.6809 22.3269 23.628 22.3146 23.6244 22.3128C23.6227 22.311 23.6086 22.2651 23.5945 22.2104C23.5044 21.8644 23.2608 21.6173 22.8759 21.4777C22.7647 21.4372 22.7189 21.4319 22.5335 21.4301C22.3199 21.4301 22.3182 21.4301 22.191 21.4954C22.1187 21.5325 22.0604 21.5608 22.0586 21.5572C22.0569 21.5554 22.041 21.5148 22.0233 21.4672C21.9898 21.3772 21.8733 21.2465 21.7851 21.2006C21.718 21.167 21.5467 21.1512 21.4196 21.1706L21.3101 21.1864L21.3013 21.1141C21.2937 21.0525 21.2872 20.9907 21.2818 20.9287C21.2624 20.724 21.1459 20.4962 20.98 20.3356C20.8776 20.2349 20.6164 20.1061 20.4469 20.0708C20.2492 20.0302 19.7071 20.0372 19.49 20.0814Z" fill="white"/>
<path d="M25.0008 12.6146C24.9001 12.6358 24.7748 12.6781 24.6866 12.7205C24.5559 12.784 24.5312 12.8034 24.4536 12.9094C24.2894 13.1317 24.2681 13.19 24.2628 13.446C24.2558 13.6843 24.2787 13.8132 24.3476 13.9315C24.3864 13.9986 24.39 13.9968 24.2505 13.9633C24.0829 13.9227 23.8798 13.9298 23.7739 13.9791C23.5462 14.0851 23.2178 14.5035 23.1719 14.7453C23.163 14.7895 23.1543 14.8018 23.1313 14.793C23.0677 14.7683 22.8823 14.7312 22.7677 14.7207C22.4269 14.6906 22.0809 14.8777 21.9414 15.169C21.8796 15.3014 21.8497 15.5221 21.8778 15.6492C21.8973 15.7357 22.0049 15.9141 22.0826 15.9881C22.1603 16.0623 22.4128 16.2071 22.5682 16.2671C22.6917 16.3148 22.7464 16.3253 22.9866 16.3412C23.4596 16.373 23.7297 16.3501 24.0405 16.253C24.0934 16.2371 24.1005 16.2406 24.1605 16.3131C24.2911 16.4701 24.5665 16.6289 24.7978 16.682C24.8595 16.6978 25.0043 16.7102 25.119 16.7137C25.2973 16.7155 25.345 16.7102 25.4492 16.6767C25.5887 16.6291 25.6752 16.5884 25.8094 16.5036L25.901 16.4436L25.9717 16.4949C26.1112 16.5954 26.2613 16.6432 26.4748 16.6519C26.6867 16.6608 26.8279 16.6361 26.978 16.5637C27.0574 16.5248 27.2393 16.3589 27.2745 16.2936C27.2923 16.2619 27.301 16.2635 27.467 16.3501C27.5623 16.3995 27.7053 16.4613 27.7848 16.486C27.9631 16.5407 28.3249 16.5742 28.6269 16.5637C28.8087 16.5566 28.8651 16.546 29.0081 16.4984C29.3841 16.3713 29.603 16.2071 29.7231 15.9617C29.8326 15.7393 29.8413 15.4038 29.7425 15.2026C29.6542 15.019 29.506 14.9202 29.2534 14.8706C29.1917 14.8601 29.1388 14.8478 29.1352 14.846C29.1335 14.8442 29.1194 14.7983 29.1052 14.7436C29.0151 14.3976 28.7716 14.1505 28.3867 14.0109C28.2755 13.9704 28.2296 13.9651 28.0442 13.9633C27.8306 13.9633 27.8289 13.9633 27.7017 14.0287C27.6294 14.0658 27.5711 14.094 27.5693 14.0904C27.5676 14.0886 27.5517 14.048 27.534 14.0004C27.5005 13.9104 27.384 13.7797 27.2958 13.7338C27.2287 13.7002 27.0574 13.6844 26.9303 13.7038L26.8208 13.7196L26.8121 13.6473C26.8045 13.5857 26.798 13.5239 26.7926 13.4619C26.7732 13.2572 26.6566 13.0294 26.4907 12.8688C26.3884 12.7681 26.1271 12.6393 25.9576 12.604C25.7599 12.5634 25.2179 12.5704 25.0008 12.6146Z" fill="white"/>
<path d="M16.925 0.579199C16.981 0.458626 17.1524 0.458626 17.2084 0.5792L17.4063 1.0054C17.4291 1.05442 17.4755 1.08819 17.5292 1.09469L17.9957 1.15123C18.1277 1.16723 18.1807 1.33025 18.0833 1.42077L17.7391 1.74071C17.6995 1.77751 17.6818 1.83216 17.6922 1.88519L17.7825 2.34634C17.8081 2.4768 17.6694 2.57755 17.5533 2.51292L17.1426 2.28446C17.0954 2.25818 17.0379 2.25818 16.9907 2.28446L16.5801 2.51292C16.4639 2.57755 16.3252 2.4768 16.3508 2.34634L16.4412 1.88519C16.4516 1.83216 16.4338 1.77751 16.3942 1.74071L16.0501 1.42077C15.9527 1.33025 16.0057 1.16723 16.1376 1.15123L16.6041 1.09469C16.6578 1.08819 16.7043 1.05442 16.727 1.0054L16.925 0.579199Z" fill="#D5E900"/>
<path d="M26.1701 3.77939C26.2261 3.65882 26.3975 3.65882 26.4535 3.77939L26.6514 4.20559C26.6742 4.25461 26.7207 4.28839 26.7743 4.29489L27.2408 4.35143C27.3728 4.36742 27.4258 4.53045 27.3284 4.62096L26.9842 4.94091C26.9446 4.97771 26.9269 5.03235 26.9373 5.08539L27.0277 5.54653C27.0532 5.67699 26.9146 5.77775 26.7984 5.71311L26.3877 5.48465C26.3405 5.45837 26.2831 5.45837 26.2358 5.48465L25.8252 5.71311C25.709 5.77775 25.5703 5.67699 25.5959 5.54653L25.6863 5.08539C25.6967 5.03235 25.6789 4.97771 25.6393 4.94091L25.2952 4.62096C25.1978 4.53045 25.2508 4.36742 25.3827 4.35143L25.8492 4.29489C25.9029 4.28839 25.9494 4.25461 25.9722 4.20559L26.1701 3.77939Z" fill="#D5E900"/>
<path d="M29.7922 10.8902C29.8481 10.7697 30.0196 10.7697 30.0756 10.8902L30.2735 11.3164C30.2963 11.3655 30.3427 11.3992 30.3964 11.4057L30.8629 11.4623C30.9949 11.4783 31.0478 11.6413 30.9505 11.7318L30.6063 12.0517C30.5667 12.0885 30.549 12.1432 30.5593 12.1962L30.6497 12.6574C30.6753 12.7878 30.5366 12.8886 30.4205 12.824L30.0098 12.5955C29.9626 12.5692 29.9051 12.5692 29.8579 12.5955L29.4473 12.824C29.3311 12.8886 29.1924 12.7878 29.218 12.6574L29.3084 12.1962C29.3188 12.1432 29.301 12.0885 29.2614 12.0517L28.9172 11.7318C28.8199 11.6413 28.8728 11.4783 29.0048 11.4623L29.4713 11.4057C29.525 11.3992 29.5715 11.3655 29.5942 11.3164L29.7922 10.8902Z" fill="#D5E900"/>
<defs>
<clipPath id="clip0_344_6251">
<rect width="14.2222" height="14.2222" fill="white" transform="translate(9.01465 4.75537) rotate(15)"/>
</clipPath>
</defs>
</svg>
