<svg width="24" height="24" viewBox="0 0 24 24" fill="none" xmlns="http://www.w3.org/2000/svg">
<path d="M8 11H4C3.20435 11 2.44129 10.6839 1.87868 10.1213C1.31607 9.55871 1 8.79565 1 8V4C1 3.20435 1.31607 2.44129 1.87868 1.87868C2.44129 1.31607 3.20435 1 4 1H8C8.79565 1 9.55871 1.31607 10.1213 1.87868C10.6839 2.44129 11 3.20435 11 4V8C11 8.79565 10.6839 9.55871 10.1213 10.1213C9.55871 10.6839 8.79565 11 8 11ZM4 3C3.73478 3 3.48043 3.10536 3.29289 3.29289C3.10536 3.48043 3 3.73478 3 4V8C3 8.26522 3.10536 8.51957 3.29289 8.70711C3.48043 8.89464 3.73478 9 4 9H8C8.26522 9 8.51957 8.89464 8.70711 8.70711C8.89464 8.51957 9 8.26522 9 8V4C9 3.73478 8.89464 3.48043 8.70711 3.29289C8.51957 3.10536 8.26522 3 8 3H4ZM20 11H16C15.2044 11 14.4413 10.6839 13.8787 10.1213C13.3161 9.55871 13 8.79565 13 8V4C13 3.20435 13.3161 2.44129 13.8787 1.87868C14.4413 1.31607 15.2044 1 16 1H20C20.7956 1 21.5587 1.31607 22.1213 1.87868C22.6839 2.44129 23 3.20435 23 4V8C23 8.79565 22.6839 9.55871 22.1213 10.1213C21.5587 10.6839 20.7956 11 20 11ZM16 3C15.7348 3 15.4804 3.10536 15.2929 3.29289C15.1054 3.48043 15 3.73478 15 4V8C15 8.26522 15.1054 8.51957 15.2929 8.70711C15.4804 8.89464 15.7348 9 16 9H20C20.2652 9 20.5196 8.89464 20.7071 8.70711C20.8946 8.51957 21 8.26522 21 8V4C21 3.73478 20.8946 3.48043 20.7071 3.29289C20.5196 3.10536 20.2652 3 20 3H16ZM8 23H4C3.20435 23 2.44129 22.6839 1.87868 22.1213C1.31607 21.5587 1 20.7956 1 20V16C1 15.2044 1.31607 14.4413 1.87868 13.8787C2.44129 13.3161 3.20435 13 4 13H8C8.79565 13 9.55871 13.3161 10.1213 13.8787C10.6839 14.4413 11 15.2044 11 16V20C11 20.7956 10.6839 21.5587 10.1213 22.1213C9.55871 22.6839 8.79565 23 8 23ZM4 15C3.73478 15 3.48043 15.1054 3.29289 15.2929C3.10536 15.4804 3 15.7348 3 16V20C3 20.2652 3.10536 20.5196 3.29289 20.7071C3.48043 20.8946 3.73478 21 4 21H8C8.26522 21 8.51957 20.8946 8.70711 20.7071C8.89464 20.5196 9 20.2652 9 20V16C9 15.7348 8.89464 15.4804 8.70711 15.2929C8.51957 15.1054 8.26522 15 8 15H4ZM20 23H16C15.2044 23 14.4413 22.6839 13.8787 22.1213C13.3161 21.5587 13 20.7956 13 20V16C13 15.2044 13.3161 14.4413 13.8787 13.8787C14.4413 13.3161 15.2044 13 16 13H20C20.7956 13 21.5587 13.3161 22.1213 13.8787C22.6839 14.4413 23 15.2044 23 16V20C23 20.7956 22.6839 21.5587 22.1213 22.1213C21.5587 22.6839 20.7956 23 20 23ZM16 15C15.7348 15 15.4804 15.1054 15.2929 15.2929C15.1054 15.4804 15 15.7348 15 16V20C15 20.2652 15.1054 20.5196 15.2929 20.7071C15.4804 20.8946 15.7348 21 16 21H20C20.2652 21 20.5196 20.8946 20.7071 20.7071C20.8946 20.5196 21 20.2652 21 20V16C21 15.7348 20.8946 15.4804 20.7071 15.2929C20.5196 15.1054 20.2652 15 20 15H16Z" fill="#496683"/>
</svg>
