<svg width="272" height="200" viewBox="0 0 272 200" fill="none" xmlns="http://www.w3.org/2000/svg">
<path d="M143.37 136.953C147.08 136.953 150.088 133.945 150.088 130.234C150.088 126.524 147.08 123.516 143.37 123.516C139.659 123.516 136.651 126.524 136.651 130.234C136.651 133.945 139.659 136.953 143.37 136.953Z" fill="white"/>
<path d="M165.877 172.562H82.229C74.8196 172.562 68.7915 166.534 68.7915 159.125V104.031C68.7915 96.6215 74.8196 90.5934 82.229 90.5934H178.979C180.509 90.5934 181.723 90.7285 182.69 91.0056C186.257 92.0275 189.977 89.9642 191 86.3972C192.021 82.8302 189.958 79.1101 186.391 78.0878C184.203 77.4609 181.779 77.1562 178.979 77.1562H170.904V53.4612C170.904 31.7022 152.82 14 130.592 14C108.363 14 90.2791 31.7022 90.2791 53.4612V77.1562H82.229C67.4101 77.1562 55.354 89.2124 55.354 104.031V159.125C55.354 173.944 67.4101 186 82.229 186H165.877C169.588 186 172.596 182.992 172.596 179.281C172.596 175.57 169.588 172.562 165.877 172.562ZM103.717 53.4612C103.717 39.1117 115.773 27.4375 130.592 27.4375C145.41 27.4375 157.467 39.1117 157.467 53.4612V77.1562H103.717V53.4612Z" fill="white"/>
<path d="M118.174 136.953C121.885 136.953 124.893 133.945 124.893 130.234C124.893 126.524 121.885 123.516 118.174 123.516C114.464 123.516 111.456 126.524 111.456 130.234C111.456 133.945 114.464 136.953 118.174 136.953Z" fill="white"/>
<path d="M216.64 125.266C216.493 112.235 205.847 101.68 192.782 101.68C179.626 101.68 168.922 112.383 168.922 125.54C168.922 129.25 171.93 132.258 175.641 132.258C179.351 132.258 182.359 129.25 182.359 125.54C182.359 119.793 187.035 115.117 192.782 115.117C198.529 115.117 203.205 119.793 203.205 125.54C203.205 125.601 203.205 125.662 203.207 125.722C203.174 127.737 202.558 129.698 201.434 131.37C200.309 133.041 198.724 134.351 196.87 135.14C190.305 137.943 186.063 144.418 186.063 151.635V157.445C186.063 161.156 189.071 164.164 192.782 164.164C196.493 164.164 199.501 161.156 199.501 157.445V151.635C199.501 149.808 200.54 148.185 202.146 147.499C206.452 145.665 210.123 142.606 212.701 138.7C215.279 134.795 216.651 130.218 216.646 125.538C216.646 125.447 216.644 125.356 216.64 125.266Z" fill="white"/>
<path d="M192.752 186C196.463 186 199.471 182.992 199.471 179.281C199.471 175.571 196.463 172.562 192.752 172.562C189.042 172.562 186.034 175.571 186.034 179.281C186.034 182.992 189.042 186 192.752 186Z" fill="white"/>
<path d="M92.979 136.953C96.6897 136.953 99.6978 133.945 99.6978 130.234C99.6978 126.524 96.6897 123.516 92.979 123.516C89.2683 123.516 86.2603 126.524 86.2603 130.234C86.2603 133.945 89.2683 136.953 92.979 136.953Z" fill="white"/>
</svg>
