<svg width="27" height="23" viewBox="0 0 27 23" fill="none" xmlns="http://www.w3.org/2000/svg">
<path d="M9.53299 18.7269C9.43234 18.7481 9.30703 18.7904 9.21881 18.8328C9.08812 18.8964 9.06346 18.9157 8.98578 19.0217C8.82158 19.2441 8.80029 19.3023 8.79502 19.5583C8.78806 19.7966 8.81093 19.9255 8.87986 20.0438C8.91865 20.1109 8.92223 20.1091 8.78269 20.0756C8.61511 20.035 8.41202 20.0421 8.30609 20.0914C8.07844 20.1974 7.75003 20.6158 7.70408 20.8576C7.69523 20.9018 7.68648 20.9141 7.6635 20.9053C7.59995 20.8806 7.41456 20.8435 7.29989 20.833C6.95915 20.8029 6.61314 20.99 6.4736 21.2813C6.41184 21.4137 6.38191 21.6344 6.41005 21.7615C6.42955 21.848 6.53715 22.0264 6.61483 22.1005C6.69251 22.1746 6.94503 22.3194 7.10038 22.3794C7.2239 22.4271 7.2786 22.4376 7.5188 22.4535C7.99181 22.4854 8.26193 22.4624 8.57274 22.3653C8.62565 22.3494 8.63271 22.3529 8.69268 22.4254C8.82337 22.5824 9.09877 22.7412 9.33 22.7943C9.39176 22.8101 9.53657 22.8225 9.65124 22.826C9.82957 22.8278 9.87721 22.8225 9.98144 22.789C10.1209 22.7414 10.2074 22.7007 10.3416 22.6159L10.4333 22.5559L10.5039 22.6072C10.6434 22.7077 10.7935 22.7555 11.007 22.7642C11.2189 22.7731 11.3601 22.7484 11.5102 22.676C11.5897 22.6371 11.7716 22.4712 11.8068 22.4059C11.8245 22.3742 11.8332 22.3758 11.9992 22.4624C12.0945 22.5118 12.2375 22.5736 12.317 22.5983C12.4953 22.653 12.8571 22.6865 13.1591 22.676C13.3409 22.6689 13.3973 22.6583 13.5403 22.6107C13.9163 22.4836 14.1353 22.3194 14.2553 22.074C14.3648 21.8516 14.3735 21.5161 14.2747 21.3149C14.1865 21.1313 14.0382 21.0325 13.7857 20.983C13.7239 20.9724 13.671 20.9601 13.6674 20.9583C13.6657 20.9565 13.6516 20.9107 13.6375 20.856C13.5474 20.5099 13.3038 20.2628 12.9189 20.1233C12.8077 20.0827 12.7619 20.0774 12.5765 20.0756C12.3628 20.0756 12.3611 20.0756 12.2339 20.141C12.1616 20.1781 12.1034 20.2063 12.1016 20.2027C12.0999 20.2009 12.084 20.1603 12.0663 20.1127C12.0327 20.0227 11.9163 19.892 11.8281 19.8461C11.7609 19.8125 11.5897 19.7967 11.4626 19.8161L11.353 19.8319L11.3443 19.7596C11.3367 19.698 11.3302 19.6362 11.3248 19.5743C11.3054 19.3695 11.1888 19.1417 11.023 18.9811C10.9206 18.8804 10.6593 18.7516 10.4899 18.7163C10.2921 18.6757 9.7501 18.6827 9.53299 18.7269Z" fill="white"/>
<path d="M3.13358 0.593091C3.03293 0.614275 2.90761 0.656644 2.8194 0.699012C2.68871 0.762565 2.66405 0.781958 2.58637 0.887879C2.42216 1.11026 2.40088 1.16854 2.39561 1.42455C2.38865 1.66284 2.41152 1.79174 2.48045 1.90999C2.51923 1.97713 2.52282 1.97534 2.38327 1.94182C2.2157 1.90125 2.0126 1.90831 1.90668 1.95763C1.67903 2.06366 1.35062 2.48197 1.30467 2.72385C1.29581 2.76801 1.28707 2.78034 1.26409 2.77149C1.20054 2.74683 1.01515 2.70973 0.90048 2.69919C0.55974 2.66915 0.21373 2.85623 0.0741877 3.14754C0.0124266 3.27991 -0.0175055 3.50061 0.0106348 3.62771C0.0301328 3.71424 0.13774 3.89257 0.215416 3.96666C0.293092 4.04086 0.545617 4.18557 0.700968 4.24564C0.824491 4.29328 0.87919 4.30382 1.11938 4.31973C1.59239 4.35156 1.86252 4.32859 2.17333 4.23152C2.22624 4.2156 2.2333 4.21908 2.29327 4.29159C2.42396 4.44863 2.69935 4.60746 2.93059 4.66047C2.99235 4.67628 3.13716 4.68872 3.25183 4.6922C3.43016 4.69399 3.4778 4.68872 3.58203 4.6552C3.72147 4.60757 3.808 4.56688 3.94216 4.48215L4.03386 4.42207L4.10447 4.4734C4.24401 4.57394 4.39409 4.62169 4.60762 4.63044C4.81947 4.63929 4.9607 4.61463 5.11078 4.54222C5.19024 4.50333 5.37216 4.33744 5.40736 4.27209C5.42506 4.24037 5.43381 4.24206 5.59981 4.32859C5.69508 4.37802 5.8381 4.43978 5.91757 4.46455C6.0959 4.51925 6.45772 4.55276 6.75967 4.54222C6.94148 4.53516 6.99786 4.52451 7.14088 4.47688C7.51693 4.34977 7.73584 4.18557 7.85588 3.94021C7.96539 3.71783 7.97413 3.38235 7.87527 3.18116C7.78706 2.99756 7.63877 2.8987 7.38624 2.84916C7.32448 2.83862 7.27157 2.82629 7.26799 2.8245C7.2663 2.82271 7.25218 2.77686 7.23806 2.72216C7.14795 2.37615 6.90438 2.129 6.51948 1.98946C6.40829 1.94888 6.36244 1.94362 6.17705 1.94182C5.96342 1.94182 5.96173 1.94182 5.83452 2.00717C5.76222 2.04427 5.70394 2.07251 5.70215 2.06893C5.70046 2.06714 5.68454 2.02656 5.66684 1.97892C5.63332 1.88892 5.51686 1.75823 5.42865 1.71227C5.36151 1.67876 5.19024 1.66295 5.06314 1.68234L4.95363 1.69815L4.94489 1.62585C4.93728 1.56418 4.93078 1.50237 4.92539 1.44046C4.906 1.23568 4.78943 1.00792 4.62354 0.847302C4.5212 0.74665 4.25993 0.617858 4.09045 0.582551C3.89273 0.541869 3.35069 0.54893 3.13358 0.593091Z" fill="white"/>
<path d="M19.4426 12.4668C21.6163 12.4668 23.3785 10.6362 23.3785 8.37793C23.3785 6.11971 21.6163 4.28906 19.4426 4.28906C17.269 4.28906 15.5068 6.11971 15.5068 8.37793C15.5068 10.6362 17.269 12.4668 19.4426 12.4668Z" fill="#FFF824"/>
<path d="M21.3078 4.76883C21.4789 5.33771 21.5987 5.94215 21.6158 6.56439C21.7185 9.03549 20.1099 11.2221 18.0222 12.1822C18.4672 12.36 18.9463 12.4666 19.4425 12.4666C21.6158 12.4666 23.3784 10.6355 23.3784 8.37775C23.3784 6.81325 22.5399 5.46214 21.3078 4.76883ZM19.4425 1.2666C19.1174 1.2666 18.8607 1.53326 18.8607 1.87104V2.8666C18.8607 3.20439 19.1174 3.47105 19.4425 3.47105C19.7677 3.47105 20.0244 3.20439 20.0244 2.8666V1.87104C20.0244 1.53326 19.7677 1.2666 19.4425 1.2666ZM19.4425 13.2844C19.1174 13.2844 18.8607 13.551 18.8607 13.8888V14.8844C18.8607 15.2221 19.1174 15.4888 19.4425 15.4888C19.7677 15.4888 20.0244 15.2221 20.0244 14.8844V13.8888C20.0244 13.551 19.7677 13.2844 19.4425 13.2844ZM26.2874 8.37769C26.2874 8.0399 26.0308 7.77324 25.7056 7.77324H24.7473C24.4222 7.77324 24.1655 8.0399 24.1655 8.37769C24.1655 8.71547 24.4222 8.98213 24.7473 8.98213H25.7056C26.0308 8.98213 26.2874 8.71547 26.2874 8.37769ZM14.7196 8.37769C14.7196 8.0399 14.4629 7.77324 14.1378 7.77324H13.1795C12.8543 7.77324 12.5977 8.0399 12.5977 8.37769C12.5977 8.71547 12.8543 8.98213 13.1795 8.98213H14.1378C14.4629 8.98213 14.7196 8.71547 14.7196 8.37769ZM24.2853 3.34659C24.0628 3.11546 23.6864 3.11546 23.4639 3.34659L22.7794 4.05769C22.557 4.28882 22.557 4.6799 22.7794 4.91103C23.0019 5.14215 23.3784 5.14215 23.6008 4.91103L24.2853 4.19992C24.5078 3.96883 24.5078 3.57771 24.2853 3.34659ZM16.1057 11.8443C15.8832 11.6132 15.5067 11.6132 15.2843 11.8443L14.5998 12.5555C14.3773 12.7866 14.3773 13.1777 14.5998 13.4088C14.8223 13.6399 15.1987 13.6399 15.4212 13.4088L16.1057 12.6977C16.3281 12.4666 16.3281 12.0932 16.1057 11.8443ZM24.2853 13.4088C24.5078 13.1777 24.5078 12.7866 24.2853 12.5555L23.6008 11.8443C23.3784 11.6132 23.0019 11.6132 22.7794 11.8443C22.557 12.0755 22.557 12.4666 22.7794 12.6977L23.4639 13.4088C23.6864 13.6399 24.0628 13.6399 24.2853 13.4088ZM16.1057 4.91103C16.3281 4.6799 16.3281 4.28882 16.1057 4.05769L15.4212 3.34659C15.1987 3.11546 14.8223 3.11546 14.5998 3.34659C14.3773 3.57771 14.3773 3.9688 14.5998 4.19992L15.2843 4.91103C15.5067 5.14215 15.8661 5.14215 16.1057 4.91103Z" fill="#FFF824"/>
</svg>
