<svg width="24" height="24" viewBox="0 0 24 24" fill="none" xmlns="http://www.w3.org/2000/svg">
<path d="M16 1.25H4C3.63879 1.24974 3.28107 1.32069 2.94731 1.4588C2.61355 1.5969 2.31028 1.79946 2.05487 2.05487C1.79946 2.31028 1.5969 2.61355 1.4588 2.94731C1.32069 3.28107 1.24974 3.63879 1.25 4V20C1.24974 20.3612 1.32069 20.7189 1.4588 21.0527C1.5969 21.3865 1.79946 21.6897 2.05487 21.9451C2.31028 22.2005 2.61355 22.4031 2.94731 22.5412C3.28107 22.6793 3.63879 22.7503 4 22.75H13.49C12.2323 21.9858 11.2594 20.831 10.7196 19.4619C10.1799 18.0928 10.1031 16.5847 10.501 15.1679C10.8988 13.751 11.7494 12.5034 12.923 11.6153C14.0965 10.7273 15.5284 10.2478 17 10.25C17.5916 10.2484 18.1806 10.3292 18.75 10.49V4C18.7503 3.63879 18.6793 3.28107 18.5412 2.94731C18.4031 2.61355 18.2005 2.31028 17.9451 2.05487C17.6897 1.79946 17.3865 1.5969 17.0527 1.4588C16.7189 1.32069 16.3612 1.24974 16 1.25ZM10 10.75H5C4.80109 10.75 4.61032 10.671 4.46967 10.5303C4.32902 10.3897 4.25 10.1989 4.25 10C4.25 9.80109 4.32902 9.61032 4.46967 9.46967C4.61032 9.32902 4.80109 9.25 5 9.25H10C10.1989 9.25 10.3897 9.32902 10.5303 9.46967C10.671 9.61032 10.75 9.80109 10.75 10C10.75 10.1989 10.671 10.3897 10.5303 10.5303C10.3897 10.671 10.1989 10.75 10 10.75ZM12 6.75H5C4.80109 6.75 4.61032 6.67098 4.46967 6.53033C4.32902 6.38968 4.25 6.19891 4.25 6C4.25 5.80109 4.32902 5.61032 4.46967 5.46967C4.61032 5.32902 4.80109 5.25 5 5.25H12C12.1989 5.25 12.3897 5.32902 12.5303 5.46967C12.671 5.61032 12.75 5.80109 12.75 6C12.75 6.19891 12.671 6.38968 12.5303 6.53033C12.3897 6.67098 12.1989 6.75 12 6.75Z" fill="#8345E9"/>
<path d="M17 11.25C15.8628 11.25 14.7511 11.5872 13.8055 12.219C12.8599 12.8509 12.1229 13.7489 11.6877 14.7996C11.2525 15.8502 11.1386 17.0064 11.3605 18.1218C11.5824 19.2372 12.13 20.2617 12.9341 21.0659C13.7383 21.87 14.7628 22.4177 15.8782 22.6395C16.9936 22.8614 18.1498 22.7475 19.2004 22.3123C20.2511 21.8771 21.1491 21.1401 21.781 20.1945C22.4128 19.2489 22.75 18.1372 22.75 17C22.7481 15.4756 22.1418 14.0141 21.0638 12.9362C19.9859 11.8582 18.5244 11.2519 17 11.25ZM19.03 16.53L17.03 18.53C16.9605 18.5998 16.8779 18.6552 16.787 18.6929C16.696 18.7307 16.5985 18.7502 16.5 18.7502C16.4015 18.7502 16.304 18.7307 16.213 18.6929C16.1221 18.6552 16.0395 18.5998 15.97 18.53L14.97 17.53C14.8963 17.4613 14.8372 17.3785 14.7962 17.2865C14.7552 17.1945 14.7332 17.0952 14.7314 16.9945C14.7296 16.8938 14.7482 16.7938 14.7859 16.7004C14.8236 16.607 14.8797 16.5222 14.951 16.451C15.0222 16.3797 15.107 16.3236 15.2004 16.2859C15.2938 16.2482 15.3938 16.2296 15.4945 16.2314C15.5952 16.2332 15.6945 16.2552 15.7865 16.2962C15.8785 16.3372 15.9613 16.3963 16.03 16.47L16.5 16.939L17.97 15.47C18.0387 15.3963 18.1215 15.3372 18.2135 15.2962C18.3055 15.2552 18.4048 15.2332 18.5055 15.2314C18.6062 15.2296 18.7062 15.2482 18.7996 15.2859C18.893 15.3236 18.9778 15.3797 19.049 15.451C19.1203 15.5222 19.1764 15.607 19.2141 15.7004C19.2518 15.7938 19.2704 15.8938 19.2686 15.9945C19.2668 16.0952 19.2448 16.1945 19.2038 16.2865C19.1628 16.3785 19.1037 16.4613 19.03 16.53Z" fill="#8345E9"/>
</svg>
