<svg width="24" height="24" viewBox="0 0 24 24" fill="none" xmlns="http://www.w3.org/2000/svg">
<path d="M19 2.25H5C4.27082 2.25053 3.57165 2.54043 3.05604 3.05604C2.54043 3.57165 2.25053 4.27082 2.25 5V9C2.25053 9.72918 2.54043 10.4283 3.05604 10.944C3.57165 11.4596 4.27082 11.7495 5 11.75H6.25V19C6.25053 19.7292 6.54043 20.4283 7.05604 20.944C7.57165 21.4596 8.27082 21.7495 9 21.75H15C15.7292 21.7495 16.4283 21.4596 16.944 20.944C17.4596 20.4283 17.7495 19.7292 17.75 19V11.75H19C19.7292 11.7495 20.4283 11.4596 20.944 10.944C21.4596 10.4283 21.7495 9.72918 21.75 9V5C21.7495 4.27082 21.4596 3.57165 20.944 3.05604C20.4283 2.54043 19.7292 2.25053 19 2.25ZM16.25 19C16.25 19.689 15.689 20.25 15 20.25H9C8.311 20.25 7.75 19.689 7.75 19V7.75H16.25V19ZM20.25 9C20.25 9.689 19.689 10.25 19 10.25H17.75V7.75H18C18.1989 7.75 18.3897 7.67098 18.5303 7.53033C18.671 7.38968 18.75 7.19891 18.75 7C18.75 6.80109 18.671 6.61032 18.5303 6.46967C18.3897 6.32902 18.1989 6.25 18 6.25H6C5.80109 6.25 5.61032 6.32902 5.46967 6.46967C5.32902 6.61032 5.25 6.80109 5.25 7C5.25 7.19891 5.32902 7.38968 5.46967 7.53033C5.61032 7.67098 5.80109 7.75 6 7.75H6.25V10.25H5C4.311 10.25 3.75 9.689 3.75 9V5C3.75 4.311 4.311 3.75 5 3.75H19C19.689 3.75 20.25 4.311 20.25 5V9Z" fill="#496683"/>
<path d="M10.75 16V18C10.75 18.1989 10.671 18.3897 10.5303 18.5303C10.3897 18.671 10.1989 18.75 10 18.75C9.80109 18.75 9.61032 18.671 9.46967 18.5303C9.32902 18.3897 9.25 18.1989 9.25 18V16C9.25 15.8011 9.32902 15.6103 9.46967 15.4697C9.61032 15.329 9.80109 15.25 10 15.25C10.1989 15.25 10.3897 15.329 10.5303 15.4697C10.671 15.6103 10.75 15.8011 10.75 16ZM10 10.25C9.80109 10.25 9.61032 10.329 9.46967 10.4697C9.32902 10.6103 9.25 10.8011 9.25 11V13C9.25 13.1989 9.32902 13.3897 9.46967 13.5303C9.61032 13.671 9.80109 13.75 10 13.75C10.1989 13.75 10.3897 13.671 10.5303 13.5303C10.671 13.3897 10.75 13.1989 10.75 13V11C10.75 10.8011 10.671 10.6103 10.5303 10.4697C10.3897 10.329 10.1989 10.25 10 10.25Z" fill="#496683"/>
</svg>
