<svg width="24" height="24" viewBox="0 0 24 24" fill="none" xmlns="http://www.w3.org/2000/svg">
<path d="M21.75 5V9C21.75 10.44 20.65 11.61 19.25 11.74V8.87C19.6524 8.60249 19.9578 8.21245 20.1211 7.7577C20.2844 7.30295 20.2968 6.8077 20.1565 6.34533C20.0163 5.88297 19.7307 5.47811 19.3423 5.19075C18.9539 4.9034 18.4832 4.74885 18 4.75H6C5.51683 4.74885 5.04614 4.9034 4.6577 5.19075C4.26926 5.47811 3.98374 5.88297 3.84346 6.34533C3.70318 6.8077 3.7156 7.30295 3.87889 7.7577C4.04218 8.21245 4.34764 8.60249 4.75 8.87V11.74C3.35 11.61 2.25 10.44 2.25 9V5C2.25 3.48 3.48 2.25 5 2.25H19C20.52 2.25 21.75 3.48 21.75 5ZM18.75 7C18.75 7.19891 18.671 7.38968 18.5303 7.53033C18.3897 7.67098 18.1989 7.75 18 7.75H17.75V19C17.7495 19.7292 17.4596 20.4283 16.944 20.944C16.4283 21.4596 15.7292 21.7495 15 21.75H9C8.27082 21.7495 7.57165 21.4596 7.05604 20.944C6.54043 20.4283 6.25053 19.7292 6.25 19V7.75H6C5.80109 7.75 5.61032 7.67098 5.46967 7.53033C5.32902 7.38968 5.25 7.19891 5.25 7C5.25 6.80109 5.32902 6.61032 5.46967 6.46967C5.61032 6.32902 5.80109 6.25 6 6.25H18C18.1989 6.25 18.3897 6.32902 18.5303 6.46967C18.671 6.61032 18.75 6.80109 18.75 7ZM10.75 16C10.75 15.8011 10.671 15.6103 10.5303 15.4697C10.3897 15.329 10.1989 15.25 10 15.25C9.80109 15.25 9.61032 15.329 9.46967 15.4697C9.32902 15.6103 9.25 15.8011 9.25 16V18C9.25 18.1989 9.32902 18.3897 9.46967 18.5303C9.61032 18.671 9.80109 18.75 10 18.75C10.1989 18.75 10.3897 18.671 10.5303 18.5303C10.671 18.3897 10.75 18.1989 10.75 18V16ZM10.75 11C10.75 10.8011 10.671 10.6103 10.5303 10.4697C10.3897 10.329 10.1989 10.25 10 10.25C9.80109 10.25 9.61032 10.329 9.46967 10.4697C9.32902 10.6103 9.25 10.8011 9.25 11V13C9.25 13.1989 9.32902 13.3897 9.46967 13.5303C9.61032 13.671 9.80109 13.75 10 13.75C10.1989 13.75 10.3897 13.671 10.5303 13.5303C10.671 13.3897 10.75 13.1989 10.75 13V11Z" fill="white"/>
</svg>
