<svg width="24" height="24" viewBox="0 0 24 24" fill="none" xmlns="http://www.w3.org/2000/svg">
<path d="M9.36825 17.4674L7.452 18.4011L6.12 13.4819L7.9935 12.5451C8.69836 12.1926 9.47563 12.009 10.2638 12.0089H14.8995C15.513 12.0089 16.0463 12.5219 16.0463 13.1556C16.0463 13.7354 15.5775 14.2499 14.9963 14.2971L13.4475 14.4254C12.459 14.5086 12.582 16.0019 13.5712 15.9209L15.1193 15.7926C16.3185 15.6936 17.2875 14.7816 17.5005 13.6311L20.4202 12.8301C20.6724 12.7585 20.9423 12.7845 21.1761 12.9029C21.41 13.0213 21.5907 13.2235 21.6821 13.4692C21.7736 13.7148 21.7692 13.9859 21.6697 14.2285C21.5703 14.471 21.3831 14.6672 21.1455 14.7779L14.922 18.1476C14.2367 18.5189 13.4337 18.6088 12.6832 18.3981L9.36825 17.4674ZM6.05325 20.0909L1.5 22.4999V14.6249L4.1085 13.4549C4.15793 13.4327 4.21157 13.4216 4.26573 13.4221C4.3199 13.4227 4.3733 13.4349 4.42226 13.4581C4.47123 13.4813 4.51459 13.5148 4.54938 13.5563C4.58416 13.5978 4.60953 13.6464 4.62375 13.6986L6.23925 19.6611C6.26161 19.7433 6.25537 19.8305 6.22157 19.9086C6.18777 19.9867 6.12841 20.051 6.05325 20.0909ZM15.0878 1.0859L14.4562 1.9469C14.4317 1.9801 14.3982 2.00563 14.3597 2.0205C14.3212 2.03538 14.2792 2.03898 14.2388 2.0309C13.7504 1.9379 13.2489 1.9379 12.7605 2.0309C12.7201 2.03893 12.6783 2.03529 12.6399 2.02041C12.6015 2.00554 12.5682 1.98004 12.5438 1.9469L11.9123 1.0859C11.8794 1.04123 11.8313 1.01026 11.777 0.998908C11.7228 0.987559 11.6662 0.996636 11.6182 1.0244L10.1318 1.8824C10.0837 1.91019 10.0477 1.95469 10.0304 2.00739C10.0131 2.06009 10.0158 2.11732 10.038 2.16815L10.4692 3.1484C10.4859 3.1862 10.4913 3.22799 10.485 3.26879C10.4786 3.3096 10.4606 3.34773 10.4333 3.37865C10.1095 3.75494 9.85776 4.18766 9.69075 4.65515C9.67755 4.69413 9.65355 4.72856 9.62156 4.75445C9.58956 4.78034 9.55088 4.79662 9.51 4.8014L8.45025 4.91765C8.39509 4.92375 8.34414 4.95003 8.30717 4.99142C8.27021 5.03281 8.24985 5.0864 8.25 5.1419V6.85865C8.25003 6.91401 8.27048 6.96742 8.30742 7.00866C8.34437 7.04989 8.39522 7.07606 8.45025 7.08215L9.51 7.1984C9.55091 7.20309 9.58963 7.21934 9.62164 7.24524C9.65366 7.27114 9.67762 7.30562 9.69075 7.34465C9.858 7.81715 10.113 8.2484 10.4333 8.62115C10.4606 8.65207 10.4786 8.69019 10.485 8.731C10.4913 8.77181 10.4859 8.81359 10.4692 8.8514L10.038 9.83165C10.0156 9.88245 10.0128 9.93974 10.0301 9.99249C10.0474 10.0452 10.0836 10.0897 10.1318 10.1174L11.6182 10.9761C11.6662 11.0039 11.7228 11.013 11.777 11.0016C11.8313 10.9903 11.8794 10.9593 11.9123 10.9146L12.5438 10.0536C12.5682 10.0205 12.6015 9.99501 12.6399 9.98013C12.6783 9.96526 12.7201 9.96162 12.7605 9.96965C13.2488 10.063 13.7504 10.063 14.2388 9.96965C14.2791 9.96162 14.321 9.96526 14.3593 9.98013C14.3977 9.99501 14.4311 10.0205 14.4555 10.0536L15.087 10.9146C15.1198 10.9593 15.168 10.9903 15.2222 11.0016C15.2765 11.013 15.333 11.0039 15.381 10.9761L16.8675 10.1181C16.9155 10.0904 16.9516 10.0459 16.9689 9.99316C16.9862 9.94045 16.9835 9.88323 16.9613 9.8324L16.53 8.85215C16.5134 8.81434 16.5079 8.77256 16.5143 8.73175C16.5207 8.69094 16.5386 8.65282 16.566 8.6219C16.8898 8.24561 17.1415 7.81289 17.3085 7.3454C17.3217 7.30642 17.3457 7.27198 17.3777 7.24609C17.4097 7.22021 17.4484 7.20393 17.4893 7.19915L18.549 7.0829C18.6043 7.07663 18.6553 7.05023 18.6924 7.00874C18.7295 6.96724 18.75 6.91354 18.75 6.8579V5.14115C18.75 5.08578 18.7295 5.03237 18.6926 4.99114C18.6556 4.9499 18.6048 4.92374 18.5497 4.91765L17.49 4.80215C17.4491 4.79746 17.4104 4.78121 17.3784 4.75531C17.3463 4.72941 17.3224 4.69493 17.3092 4.6559C17.1427 4.18819 16.891 3.75539 16.5668 3.3794C16.5394 3.34848 16.5214 3.31035 16.515 3.26954C16.5087 3.22874 16.5141 3.18695 16.5308 3.14915L16.962 2.1689C16.9844 2.11809 16.9872 2.06081 16.9699 2.00806C16.9526 1.95531 16.9164 1.91082 16.8682 1.88315L15.3818 1.0244C15.3338 0.996636 15.2772 0.987559 15.223 0.998908C15.1687 1.01026 15.1206 1.04123 15.0878 1.0859ZM15.1238 6.9374C15.0015 7.15236 14.838 7.34102 14.6426 7.49252C14.4471 7.64403 14.2237 7.75538 13.985 7.82017C13.7464 7.88495 13.4973 7.9019 13.2521 7.87003C13.0069 7.83816 12.7704 7.7581 12.5563 7.63445C12.3421 7.51081 12.1545 7.34604 12.0043 7.14961C11.8541 6.95318 11.7443 6.72898 11.6811 6.48992C11.6179 6.25086 11.6026 6.00166 11.6361 5.75666C11.6696 5.51167 11.7512 5.27572 11.8763 5.0624C12.1267 4.63526 12.5358 4.32451 13.0145 4.19795C13.4932 4.0714 14.0025 4.13931 14.4313 4.38688C14.8601 4.63445 15.1736 5.04157 15.3033 5.5194C15.433 5.99723 15.3685 6.50698 15.1238 6.9374Z" fill="#8345E9"/>
</svg>
