<svg width="24" height="24" viewBox="0 0 24 24" fill="none" xmlns="http://www.w3.org/2000/svg">
<path d="M1.55478 15.7635C1.62909 15.948 1.77364 16.0954 1.95662 16.1733C2.1396 16.2512 2.34604 16.2533 2.53053 16.179L4.80603 15.2603L6.09228 20.0535L4.15053 21.0772C3.97449 21.17 3.84253 21.329 3.78366 21.5191C3.75452 21.6132 3.7442 21.7121 3.75329 21.8102C3.76238 21.9083 3.79071 22.0037 3.83666 22.0909C3.8826 22.178 3.94527 22.2553 4.02107 22.3182C4.09688 22.3812 4.18434 22.4286 4.27846 22.4577C4.46855 22.5166 4.67424 22.4975 4.85028 22.4047L7.32228 21.1012C7.63203 20.9377 7.78803 20.5815 7.69728 20.2432L7.60428 19.8953L9.43203 19.0042L12.4725 19.8577C13.4101 20.1228 14.4141 20.0106 15.27 19.545L21.459 16.1925C21.8612 16.0021 22.1779 15.6685 22.3473 15.257C22.5166 14.8455 22.5264 14.3856 22.3748 13.9672C22.2203 13.5434 21.9125 13.1929 21.5122 12.9849C21.1119 12.777 20.6482 12.7266 20.2125 12.8438L16.5983 13.8352C16.4452 13.5116 16.2035 13.2378 15.9013 13.0458C15.599 12.8537 15.2486 12.7512 14.8905 12.75H10.2548C9.35553 12.75 8.45478 12.9622 7.64853 13.365L6.06303 14.1578L6.03528 14.0535C6.00784 13.9509 5.95892 13.8553 5.89177 13.7731C5.82463 13.6908 5.74078 13.6237 5.64577 13.5763C5.55076 13.5289 5.44677 13.5022 5.34066 13.4979C5.23456 13.4937 5.12876 13.512 5.03028 13.5518L1.96878 14.7862C1.78447 14.8612 1.63738 15.0061 1.55978 15.1893C1.48217 15.3725 1.48037 15.579 1.55478 15.7635ZM8.31978 14.7067C8.92095 14.4074 9.58319 14.251 10.2548 14.25H14.8905C14.9906 14.2535 15.0858 14.2946 15.1568 14.3652C15.2279 14.4358 15.2697 14.5306 15.2739 14.6307C15.2781 14.7308 15.2443 14.8288 15.1793 14.905C15.1144 14.9813 15.023 15.0302 14.9235 15.042L12.1673 15.2715C12.0668 15.2765 11.9684 15.3017 11.8779 15.3456C11.7874 15.3894 11.7066 15.451 11.6404 15.5267C11.5741 15.6024 11.5238 15.6906 11.4924 15.7862C11.4609 15.8817 11.449 15.9826 11.4574 16.0828C11.4657 16.1831 11.4942 16.2806 11.541 16.3696C11.5878 16.4587 11.652 16.5373 11.7299 16.601C11.8077 16.6647 11.8976 16.7121 11.9941 16.7404C12.0906 16.7686 12.1919 16.7772 12.2918 16.7655L15.0488 16.536C15.765 16.476 16.3635 16.011 16.6335 15.381L20.61 14.2897C20.6813 14.2717 20.7567 14.2804 20.822 14.3143C20.8872 14.3482 20.9378 14.4048 20.964 14.4735C21.015 14.616 20.9505 14.7727 20.7795 14.8552L14.556 18.225C14.0423 18.5046 13.4395 18.5719 12.8768 18.4125L9.56178 17.4825C9.38488 17.4337 9.19628 17.4504 9.03078 17.5297L7.20753 18.4177L6.46128 15.636L8.31978 14.7067ZM16.395 11.9227C16.3224 11.8562 16.2637 11.7759 16.2221 11.6867C16.1805 11.5974 16.1569 11.5008 16.1526 11.4024C16.1484 11.3039 16.1636 11.2057 16.1973 11.1131C16.2311 11.0206 16.2827 10.9356 16.3493 10.863C16.73 10.4461 17.014 9.95031 17.181 9.411C17.2248 9.27222 17.3081 9.14918 17.4206 9.0569C17.5332 8.96461 17.6701 8.90705 17.8148 8.89125L18.75 8.78925V7.71075L17.8185 7.60875C17.6739 7.59295 17.5369 7.53539 17.4244 7.4431C17.3118 7.35081 17.2286 7.22778 17.1848 7.089C17.018 6.54911 16.7319 6.05364 16.3478 5.63925C16.2492 5.53199 16.184 5.39829 16.1603 5.25454C16.1366 5.11079 16.1554 4.96325 16.2143 4.83L16.5915 3.97275L15.6578 3.43275L15.102 4.1925C14.9265 4.4325 14.625 4.54425 14.3348 4.482C13.7848 4.35705 13.2139 4.35501 12.663 4.476C12.5208 4.50846 12.3722 4.4984 12.2356 4.44706C12.0991 4.39572 11.9806 4.30537 11.895 4.18725L11.343 3.4335L10.4093 3.9735L10.785 4.82775C10.8438 4.96103 10.8624 5.10853 10.8387 5.25224C10.815 5.39595 10.75 5.52964 10.6515 5.637C10.2708 6.0539 9.98681 6.54969 9.81978 7.089C9.77596 7.22778 9.69271 7.35081 9.58018 7.4431C9.46765 7.53539 9.3307 7.59295 9.18603 7.60875L8.25003 7.71075V8.78925L9.18153 8.89125C9.3262 8.90705 9.46315 8.96461 9.57568 9.0569C9.68821 9.14918 9.77146 9.27222 9.81528 9.411C9.98207 9.95089 10.2681 10.4464 10.6523 10.8607C10.7215 10.9329 10.7756 11.0181 10.8114 11.1114C10.8472 11.2047 10.864 11.3042 10.8608 11.4041C10.8576 11.504 10.8345 11.6022 10.7928 11.6931C10.7511 11.7839 10.6916 11.8655 10.618 11.933C10.5443 12.0005 10.4579 12.0527 10.3637 12.0863C10.2696 12.12 10.1697 12.1345 10.07 12.129C9.97016 12.1235 9.87247 12.0981 9.78262 12.0543C9.69278 12.0105 9.6126 11.9492 9.54678 11.874C9.12867 11.4218 8.79331 10.8996 8.55603 10.3312L7.41828 10.2067C7.23463 10.1866 7.06487 10.0994 6.94155 9.96182C6.81824 9.82425 6.75004 9.646 6.75003 9.46125V7.03875C6.75004 6.854 6.81824 6.67575 6.94155 6.53818C7.06487 6.4006 7.23463 6.31339 7.41828 6.29325L8.55903 6.168C8.73048 5.75451 8.95404 5.3646 9.22428 5.00775L8.76453 3.96225C8.68983 3.79304 8.68029 3.6022 8.73774 3.42639C8.79519 3.25058 8.91558 3.1022 9.07578 3.00975L11.1743 1.79775C11.3344 1.7056 11.523 1.67569 11.7038 1.71374C11.8846 1.75178 12.0451 1.85512 12.1545 2.004L12.8303 2.92575C13.2745 2.87175 13.7237 2.87326 14.1675 2.93025L14.8463 2.00475C14.9555 1.8556 15.116 1.75205 15.2969 1.71398C15.4778 1.67592 15.6664 1.70601 15.8265 1.7985L17.925 3.0105C18.0852 3.10295 18.2056 3.25133 18.2631 3.42714C18.3205 3.60295 18.311 3.79379 18.2363 3.963L17.775 5.01C18.0585 5.38275 18.2745 5.76225 18.4448 6.1695L19.5825 6.294C19.962 6.3345 20.25 6.65625 20.25 7.03875V9.46125C20.25 9.646 20.1818 9.82425 20.0585 9.96182C19.9352 10.0994 19.7654 10.1866 19.5818 10.2067L18.441 10.332C18.2049 10.9004 17.8714 11.4232 17.4555 11.877C17.3889 11.9497 17.3087 12.0086 17.2193 12.0502C17.13 12.0919 17.0333 12.1155 16.9348 12.1198C16.8363 12.124 16.7379 12.1088 16.6453 12.075C16.5527 12.0412 16.4676 11.9895 16.395 11.9227Z" fill="#496683"/>
<path d="M13.5002 5.25012C11.8457 5.25012 10.5002 6.59562 10.5002 8.25012C10.5002 9.90462 11.8457 11.2501 13.5002 11.2501C15.1547 11.2501 16.5002 9.90462 16.5002 8.25012C16.5002 6.59562 15.1547 5.25012 13.5002 5.25012ZM13.5002 9.75012C12.673 9.75012 12.0002 9.07737 12.0002 8.25012C12.0002 7.42287 12.673 6.75012 13.5002 6.75012C14.3275 6.75012 15.0002 7.42287 15.0002 8.25012C15.0002 9.07737 14.3275 9.75012 13.5002 9.75012Z" fill="#496683"/>
</svg>
