<svg width="272" height="200" viewBox="0 0 272 200" fill="none" xmlns="http://www.w3.org/2000/svg">
<path d="M215.714 123.853H197.763V84.9155C197.763 77.4806 191.708 71.4253 184.273 71.4253H182.05V60.0353C182.035 34.6492 161.386 14 136 14C110.614 14 89.9644 34.6492 89.9644 60.0353V71.4253H87.7415C80.3066 71.4253 74.2513 77.4806 74.2513 84.9155V123.853H56.2848C47.8381 123.853 40.9551 130.736 40.9551 139.183V170.67C40.9551 179.117 47.8381 186 56.2848 186H215.714C224.161 186 231.044 179.117 231.044 170.67V139.183C231.044 130.736 224.161 123.853 215.714 123.853ZM96.0963 60.0353C96.0963 38.0371 113.986 20.1319 136 20.1319C158.013 20.1319 175.903 38.0371 175.903 60.0353V71.4253H164.13V60.0353C164.13 44.5216 151.513 31.8898 135.984 31.8898C120.455 31.8898 107.839 44.5062 107.839 60.0353V71.4253H96.0656V60.0353H96.0963ZM158.013 60.0353V71.4253H113.986V60.0353C113.986 47.8941 123.858 38.0217 136 38.0217C148.141 38.0217 158.013 47.8941 158.013 60.0353ZM80.3679 84.9155C80.3679 80.8531 83.6638 77.5572 87.7262 77.5572H184.258C188.32 77.5572 191.616 80.8531 191.616 84.9155V123.853H80.3679V84.9155ZM224.912 170.67C224.912 175.744 220.789 179.868 215.714 179.868H56.2848C51.2107 179.868 47.087 175.744 47.087 170.67V139.183C47.087 134.109 51.2107 129.985 56.2848 129.985H215.714C220.789 129.985 224.912 134.109 224.912 139.183V170.67Z" fill="white"/>
<path d="M87.9405 147.86C87.7393 147.511 87.4715 147.206 87.1522 146.961C86.833 146.716 86.4686 146.536 86.0799 146.432C85.6912 146.329 85.2859 146.302 84.887 146.355C84.4882 146.408 84.1037 146.539 83.7554 146.74L78.7733 149.622V143.858C78.7733 142.172 77.3936 140.792 75.7073 140.792C74.021 140.792 72.6414 142.172 72.6414 143.858V149.622L67.6592 146.74C66.1875 145.897 64.3173 146.403 63.4742 147.86C62.631 149.331 63.1369 151.201 64.5932 152.045L69.5907 154.927L64.5932 157.809C63.1216 158.652 62.631 160.537 63.4742 161.994C64.0414 162.975 65.0685 163.527 66.1262 163.527C66.6474 163.527 67.1686 163.389 67.6592 163.113L72.6414 160.231V165.995C72.6414 167.681 74.021 169.061 75.7073 169.061C77.3936 169.061 78.7733 167.681 78.7733 165.995V160.231L83.7554 163.113C84.1037 163.314 84.4882 163.445 84.887 163.498C85.2859 163.551 85.6912 163.525 86.0799 163.421C86.4686 163.317 86.833 163.137 87.1522 162.892C87.4715 162.647 87.7393 162.342 87.9405 161.994C88.7836 160.522 88.2777 158.652 86.8214 157.809L81.8239 154.927L86.8214 152.045C88.2777 151.201 88.7836 149.331 87.9405 147.86ZM128.135 147.86C127.934 147.511 127.666 147.206 127.347 146.961C127.028 146.716 126.663 146.536 126.275 146.432C125.886 146.329 125.481 146.302 125.082 146.355C124.683 146.408 124.298 146.539 123.95 146.74L118.968 149.622V143.858C118.968 142.172 117.588 140.792 115.902 140.792C114.216 140.792 112.836 142.172 112.836 143.858V149.622L107.854 146.74C106.382 145.897 104.512 146.403 103.669 147.86C102.826 149.331 103.332 151.201 104.788 152.045L109.785 154.927L104.788 157.809C103.316 158.652 102.826 160.537 103.669 161.994C104.236 162.975 105.263 163.527 106.321 163.527C106.842 163.527 107.363 163.389 107.854 163.113L112.836 160.231V165.995C112.836 167.681 114.216 169.061 115.902 169.061C117.588 169.061 118.968 167.681 118.968 165.995V160.231L123.95 163.113C124.298 163.314 124.683 163.445 125.082 163.498C125.481 163.551 125.886 163.525 126.275 163.421C126.663 163.317 127.028 163.137 127.347 162.892C127.666 162.647 127.934 162.342 128.135 161.994C128.978 160.522 128.472 158.652 127.016 157.809L122.019 154.927L127.016 152.045C128.488 151.201 128.994 149.331 128.135 147.86ZM168.345 147.86C168.144 147.511 167.876 147.206 167.557 146.961C167.238 146.716 166.873 146.536 166.485 146.432C166.096 146.329 165.691 146.302 165.292 146.355C164.893 146.408 164.508 146.539 164.16 146.74L159.178 149.622V143.858C159.178 142.172 157.798 140.792 156.112 140.792C154.426 140.792 153.046 142.172 153.046 143.858V149.622L148.064 146.74C146.592 145.897 144.722 146.403 143.879 147.86C143.036 149.331 143.542 151.201 144.998 152.045L149.995 154.927L144.998 157.809C143.526 158.652 143.036 160.537 143.879 161.994C144.446 162.975 145.473 163.527 146.531 163.527C147.052 163.527 147.573 163.389 148.064 163.113L153.046 160.231V165.995C153.046 167.681 154.426 169.061 156.112 169.061C157.798 169.061 159.178 167.681 159.178 165.995V160.231L164.16 163.113C164.508 163.314 164.893 163.445 165.292 163.498C165.691 163.551 166.096 163.525 166.485 163.421C166.873 163.317 167.238 163.137 167.557 162.892C167.876 162.647 168.144 162.342 168.345 161.994C169.188 160.522 168.682 158.652 167.226 157.809L162.229 154.927L167.226 152.045C168.698 151.201 169.188 149.331 168.345 147.86ZM208.555 147.86C208.354 147.511 208.087 147.205 207.767 146.96C207.448 146.715 207.084 146.535 206.695 146.431C206.306 146.327 205.901 146.301 205.502 146.354C205.103 146.407 204.718 146.538 204.37 146.74L199.388 149.622V143.858C199.388 142.172 198.008 140.792 196.322 140.792C194.636 140.792 193.256 142.172 193.256 143.858V149.622L188.274 146.74C186.802 145.897 184.932 146.403 184.089 147.86C183.246 149.331 183.752 151.201 185.208 152.045L190.205 154.927L185.208 157.809C183.736 158.652 183.246 160.537 184.089 161.994C184.656 162.975 185.683 163.527 186.741 163.527C187.262 163.527 187.783 163.389 188.274 163.113L193.256 160.231V165.995C193.256 167.681 194.636 169.061 196.322 169.061C198.008 169.061 199.388 167.681 199.388 165.995V160.231L204.37 163.113C204.718 163.314 205.103 163.445 205.502 163.498C205.901 163.551 206.306 163.525 206.695 163.421C207.083 163.317 207.448 163.137 207.767 162.892C208.086 162.647 208.354 162.342 208.555 161.994C209.398 160.522 208.892 158.652 207.436 157.809L202.439 154.927L207.436 152.045C208.892 151.201 209.398 149.331 208.555 147.86Z" fill="white"/>
</svg>
